<?xml version="1.0" standalone="no"?>
<!DOCTYPE svg PUBLIC "-//W3C//DTD SVG 20010904//EN"
 "http://www.w3.org/TR/2001/REC-SVG-20010904/DTD/svg10.dtd">
<svg version="1.0" xmlns="http://www.w3.org/2000/svg"
 width="1000.000000pt" height="1000.000000pt" viewBox="0 0 1000.000000 1000.000000"
 preserveAspectRatio="xMidYMid meet">
<metadata>
Created by potrace 1.14, written by Peter Selinger 2001-2017
</metadata>
<g transform="translate(0.000000,1000.000000) scale(0.100000,-0.100000)"
fill="#000000" stroke="none">
<path d="M4640 9823 c-19 -1 -87 -8 -150 -14 -383 -36 -867 -154 -1250 -306
-821 -326 -1510 -844 -2067 -1553 -549 -700 -898 -1581 -988 -2496 -22 -224
-17 -806 9 -1014 75 -597 225 -1094 486 -1617 232 -463 517 -859 890 -1234
397 -399 791 -684 1285 -931 520 -261 1077 -421 1677 -483 194 -20 736 -20
938 0 466 45 918 156 1365 335 117 46 422 196 560 275 844 480 1527 1207 1955
2080 303 617 467 1260 488 1915 19 578 -33 1024 -179 1545 -277 991 -908 1907
-1744 2535 -725 544 -1552 868 -2445 955 -131 13 -721 19 -830 8z m606 -373
c1104 -64 2144 -526 2909 -1295 735 -739 1175 -1660 1292 -2707 21 -189 24
-695 5 -868 -41 -374 -103 -667 -211 -990 -290 -868 -831 -1619 -1566 -2170
-648 -486 -1432 -790 -2245 -870 -58 -5 -206 -13 -330 -16 -1427 -40 -2781
619 -3663 1782 -694 915 -1008 2095 -861 3239 120 936 529 1804 1175 2490 616
655 1408 1111 2269 1304 425 95 794 126 1226 101z"/>
<path d="M4790 9203 c-469 -24 -980 -141 -1412 -324 -1223 -516 -2136 -1580
-2458 -2863 -87 -346 -123 -642 -123 -1016 0 -413 36 -699 138 -1086 204 -779
663 -1526 1259 -2053 679 -599 1439 -942 2336 -1052 138 -17 233 -22 445 -22
344 -1 572 20 860 79 461 94 891 258 1295 494 1102 643 1862 1769 2044 3030
45 309 54 751 22 1039 -124 1116 -647 2089 -1506 2807 -277 231 -522 389 -860
553 -200 97 -250 117 -468 192 -504 172 -1050 249 -1572 222z m-606 -3008
c313 -37 581 -130 834 -291 4 -2 -247 -527 -258 -537 -4 -5 -61 18 -126 51
-202 101 -458 188 -623 212 -90 14 -245 9 -304 -10 -61 -18 -113 -72 -127
-130 -14 -58 -7 -99 25 -156 28 -49 72 -80 185 -133 78 -36 146 -59 494 -166
288 -89 422 -158 544 -284 146 -150 214 -340 198 -561 -20 -302 -166 -510
-462 -658 -164 -83 -333 -120 -582 -129 -300 -11 -578 43 -872 169 -150 64
-338 176 -433 258 -6 6 241 520 259 539 3 3 17 -5 32 -17 213 -170 532 -321
771 -366 122 -23 292 -21 375 4 112 35 175 111 176 213 0 146 -124 240 -420
317 -282 73 -616 197 -728 269 -126 82 -228 217 -273 361 -21 65 -24 95 -24
230 0 169 10 220 66 334 113 229 361 399 674 461 191 38 391 44 599 20z m3214
-204 l2 -174 -545 -1196 c-301 -658 -550 -1199 -554 -1204 -4 -4 -116 -6 -249
-5 l-241 3 520 1135 c286 624 526 1150 534 1168 l14 32 -535 0 -534 0 0 -127
c0 -71 -3 -158 -7 -196 l-6 -67 -201 2 -201 3 -3 390 c-1 214 0 396 3 403 3
10 208 12 1002 10 l998 -3 3 -174z"/>
</g>
</svg>
