<svg id="svg" version="1.1" xmlns="http://www.w3.org/2000/svg" xmlns:xlink="http://www.w3.org/1999/xlink" width="400" height="400" viewBox="0, 0, 400,400">
    <g id="svgg">
        <path id="path0" d="M149.200 152.036 C 126.292 154.985,113.825 166.525,113.806 184.800 C 113.788 203.080,123.193 210.970,154.800 219.192 C 166.634 222.270,171.618 226.041,171.591 231.896 C 171.523 246.763,140.533 243.262,118.707 225.922 C 118.105 225.444,117.540 225.132,117.451 225.227 C 116.716 226.012,106.820 246.570,107.072 246.788 C 137.364 272.944,192.503 268.274,200.023 238.915 C 205.050 219.288,195.656 206.073,171.361 198.596 C 168.742 197.791,163.990 196.321,160.800 195.330 C 146.343 190.839,141.651 186.858,143.201 180.396 C 145.355 171.416,164.213 172.707,185.351 183.281 C 187.964 184.588,190.245 185.510,190.419 185.329 C 190.823 184.909,200.872 163.924,200.716 163.826 C 185.991 154.482,165.906 149.886,149.200 152.036 M215.783 153.699 C 215.677 153.976,215.638 161.221,215.695 169.801 L 215.800 185.400 223.841 185.508 L 231.883 185.616 232.139 182.908 C 232.279 181.419,232.396 177.905,232.397 175.100 L 232.400 170.000 253.780 170.000 L 275.159 170.000 274.602 171.300 C 274.295 172.015,264.686 193.030,253.248 218.000 L 232.452 263.400 242.099 263.507 C 247.404 263.566,251.879 263.476,252.043 263.307 C 252.207 263.138,262.169 241.470,274.180 215.156 L 296.019 167.312 295.910 160.356 L 295.800 153.400 255.888 153.298 C 224.130 153.217,215.937 153.299,215.783 153.699 " stroke="none" fill="#fbfbfc" fill-rule="evenodd"></path>
        <path id="path1" d="M0.000 200.000 L 0.000 400.000 200.000 400.000 L 400.000 400.000 400.000 200.000 L 400.000 0.000 200.000 0.000 L 0.000 0.000 0.000 200.000 M167.372 152.204 C 179.880 153.668,190.589 157.400,200.716 163.826 C 200.872 163.924,190.823 184.909,190.419 185.329 C 190.245 185.510,187.964 184.588,185.351 183.281 C 164.213 172.707,145.355 171.416,143.201 180.396 C 141.651 186.858,146.343 190.839,160.800 195.330 C 163.990 196.321,168.742 197.791,171.361 198.596 C 195.656 206.073,205.050 219.288,200.023 238.915 C 192.503 268.274,137.364 272.944,107.072 246.788 C 106.820 246.570,116.716 226.012,117.451 225.227 C 117.540 225.132,118.105 225.444,118.707 225.922 C 140.533 243.262,171.523 246.763,171.591 231.896 C 171.618 226.041,166.634 222.270,154.800 219.192 C 123.193 210.970,113.788 203.080,113.806 184.800 C 113.830 161.722,135.582 148.486,167.372 152.204 M295.910 160.356 L 296.019 167.312 274.180 215.156 C 262.169 241.470,252.207 263.138,252.043 263.307 C 251.879 263.476,247.404 263.566,242.099 263.507 L 232.452 263.400 253.248 218.000 C 264.686 193.030,274.295 172.015,274.602 171.300 L 275.159 170.000 253.780 170.000 L 232.400 170.000 232.397 175.100 C 232.396 177.905,232.279 181.419,232.139 182.908 L 231.883 185.616 223.841 185.508 L 215.800 185.400 215.695 169.801 C 215.638 161.221,215.677 153.976,215.783 153.699 C 215.937 153.299,224.130 153.217,255.888 153.298 L 295.800 153.400 295.910 160.356 " stroke="none" fill="#5474fc" fill-rule="evenodd"></path>
    </g>
</svg>